<?xml version="1.0" encoding="iso-8859-1"?>
<!-- Generator: Adobe Illustrator 18.0.0, SVG Export Plug-In . SVG Version: 6.00 Build 0)  -->
<!DOCTYPE svg PUBLIC "-//W3C//DTD SVG 1.1//EN" "http://www.w3.org/Graphics/SVG/1.1/DTD/svg11.dtd">
<svg version="1.1" id="Layer_1" xmlns="http://www.w3.org/2000/svg" xmlns:xlink="http://www.w3.org/1999/xlink" x="0px" y="0px"
	 viewBox="0 0 470 110" style="enable-background:new 0 0 470 110;" xml:space="preserve">
<g>
	<path style="fill:#FFFFFF;" d="M52.436,2.564C23.523,2.564,0,26.086,0,55c0,28.913,23.523,52.438,52.436,52.438
		c28.914,0,52.436-23.524,52.436-52.438C104.872,26.086,81.35,2.564,52.436,2.564z M28.391,55.001l2.601-4.505l9.422-16.318h24.045
		l12.023,20.824L64.458,75.824H40.413L28.391,55.001z M76.483,59.03l2.327-4.029l0,0l14.732-25.516
		c4.619,7.413,7.297,16.156,7.297,25.515c0,7.451-1.696,14.514-4.716,20.824H66.788L76.483,59.03z M92.303,27.594L77.646,52.983
		L50.886,6.637c0.516-0.016,1.03-0.04,1.55-0.04C68.957,6.597,83.566,14.923,92.303,27.594z M48.629,6.762l14.665,25.399H39.25
		H9.775C17.378,18.017,31.81,8.078,48.629,6.762z M8.749,34.177h29.336L11.33,80.516C6.711,73.102,4.034,64.36,4.034,55
		C4.034,47.549,5.729,40.488,8.749,34.177z M12.568,82.404l14.658-25.387l26.758,46.347c-0.515,0.016-1.029,0.039-1.548,0.039
		C35.914,103.403,21.305,95.076,12.568,82.404z M56.241,103.24L41.577,77.842h24.046h29.474
		C87.493,91.986,73.061,101.925,56.241,103.24z"/>
	<g>
		<path style="fill:#FFFFFF;" d="M135.124,82.634h-2.621l4.34-19.159v-0.245l8.352-35.78h2.047l12.609,55.184h-2.621l-3.766-16.866
			h-14.574L135.124,82.634z M146.178,34.409l-6.632,28.821h13.346L146.178,34.409z"/>
		<path style="fill:#FFFFFF;" d="M183.595,82.634h-2.538V27.45h9.907c4.421,0,7.668,1.201,9.743,3.602
			c2.074,2.403,3.112,6.006,3.112,10.809c0,4.804-1.038,8.406-3.112,10.808c-2.075,2.403-5.322,3.602-9.743,3.602h-7.369V82.634z
			 M183.595,53.732h7.369c3.603,0,6.223-0.927,7.86-2.784c1.583-1.911,2.374-4.939,2.374-9.088c0-4.258-0.792-7.3-2.374-9.129
			c-1.583-1.829-4.204-2.743-7.86-2.743h-7.369V53.732z"/>
		<path style="fill:#FFFFFF;" d="M227.727,29.988v23.744h17.277v2.537h-17.277v23.826h17.277v2.538h-19.815V27.45h19.815v2.539
			H227.727z"/>
		<path style="fill:#FFFFFF;" d="M285.615,57.497c2.456,2.348,3.684,5.597,3.684,9.744v15.311h-2.619V67.241
			c0-3.329-0.901-5.908-2.702-7.738c-1.802-1.827-4.34-2.742-7.615-2.742h-1.229h-6.141v25.792h-2.538V27.368h9.907
			c4.421,0,7.655,1.187,9.702,3.562c2.048,2.374,3.071,6.073,3.071,11.094c0,4.913-1.011,8.57-3.03,10.971
			c-0.874,1.038-1.965,1.884-3.274,2.539C283.867,56.025,284.796,56.679,285.615,57.497z M276.362,54.141
			c3.656,0,6.25-0.926,7.778-2.784c1.638-1.965,2.456-5.077,2.456-9.333c0-4.311-0.792-7.396-2.374-9.253
			c-1.584-1.854-4.204-2.783-7.86-2.783h-7.369v24.153h6.141H276.362z"/>
		<path style="fill:#FFFFFF;" d="M339.816,29.988h-13.264v52.564h-2.538V29.988h-13.183v-2.621h28.984V29.988z"/>
		<path style="fill:#FFFFFF;" d="M371.175,82.553c-1.256,0-2.525-0.177-3.808-0.533c-1.283-0.354-2.456-1.023-3.521-2.006
			c-1.064-0.981-1.938-2.36-2.62-4.134c-0.683-1.773-1.023-4.054-1.023-6.837V27.368h2.539v41.675c0,2.456,0.272,4.408,0.817,5.854
			c0.545,1.447,1.228,2.553,2.048,3.316c0.818,0.765,1.72,1.256,2.701,1.474c0.982,0.219,1.936,0.327,2.866,0.327
			c0.873,0,1.802-0.108,2.783-0.327c0.982-0.218,1.884-0.709,2.702-1.474c0.819-0.764,1.501-1.869,2.047-3.316
			c0.545-1.445,0.818-3.397,0.818-5.854V27.368h2.539v41.675c0,2.783-0.342,5.063-1.023,6.837c-0.683,1.773-1.543,3.152-2.58,4.134
			c-1.036,0.982-2.209,1.652-3.52,2.006C373.631,82.376,372.375,82.553,371.175,82.553z"/>
		<path style="fill:#FFFFFF;" d="M424.559,57.497c2.456,2.348,3.684,5.597,3.684,9.744v15.311h-2.619V67.241
			c0-3.329-0.901-5.908-2.702-7.738c-1.801-1.827-4.34-2.742-7.615-2.742h-1.228h-6.142v25.792h-2.537V27.368h9.906
			c4.422,0,7.655,1.187,9.703,3.562c2.047,2.374,3.07,6.073,3.07,11.094c0,4.913-1.011,8.57-3.03,10.971
			c-0.873,1.038-1.965,1.884-3.274,2.539C422.81,56.025,423.739,56.679,424.559,57.497z M415.306,54.141
			c3.656,0,6.25-0.926,7.778-2.784c1.638-1.965,2.456-5.077,2.456-9.333c0-4.311-0.791-7.396-2.374-9.253
			c-1.583-1.854-4.204-2.783-7.86-2.783h-7.369v24.153h6.142H415.306z"/>
		<path style="fill:#FFFFFF;" d="M452.724,29.988v23.744H470v2.537h-17.276v23.826H470v2.538h-19.815V27.45H470v2.539H452.724z"/>
	</g>
</g>
</svg>
